<?xml version="1.0" standalone="no"?>
<!DOCTYPE svg PUBLIC "-//W3C//DTD SVG 20010904//EN"
 "http://www.w3.org/TR/2001/REC-SVG-20010904/DTD/svg10.dtd">
<svg version="1.0" xmlns="http://www.w3.org/2000/svg"
 width="510.000000pt" height="79.000000pt" viewBox="0 0 510.000000 79.000000"
 preserveAspectRatio="xMidYMid meet">
<metadata>
Created by potrace 1.16, written by Peter Selinger 2001-2019
</metadata>
<g transform="translate(0.000000,79.000000) scale(0.100000,-0.100000)"
fill="#000000" stroke="none">
<path d="M70 695 l0 -55 240 0 240 0 0 55 0 55 -240 0 -240 0 0 -55z"/>
<path d="M1400 395 l0 -355 190 0 c168 0 195 2 228 19 72 37 102 87 102 172 0
60 -21 114 -61 155 -30 31 -30 32 -15 62 36 70 12 206 -45 259 -41 37 -74 43
-240 43 l-159 0 0 -355z m305 239 c44 -17 59 -114 24 -158 -20 -25 -24 -26
-125 -26 l-104 0 0 88 c0 49 3 92 7 95 8 9 176 9 198 1z m53 -310 c26 -7 52
-51 52 -89 0 -16 -12 -38 -29 -56 -29 -29 -30 -29 -155 -29 l-126 0 0 90 0 90
118 0 c64 0 127 -3 140 -6z"/>
<path d="M2110 395 l0 -355 55 0 55 0 0 145 0 145 78 0 77 0 75 -141 c41 -78
80 -143 86 -146 6 -2 36 -3 66 -1 l55 3 -77 140 -77 140 40 23 c47 26 61 42
87 97 34 71 22 177 -27 235 -53 64 -81 70 -298 70 l-195 0 0 -355z m395 220
c36 -35 37 -105 2 -142 -19 -22 -28 -23 -154 -23 l-133 0 0 95 0 95 130 0
c126 0 132 -1 155 -25z"/>
<path d="M2830 395 l0 -355 60 0 60 0 0 355 0 355 -60 0 -60 0 0 -355z"/>
<path d="M3358 727 c-293 -123 -305 -514 -20 -654 50 -24 69 -28 147 -28 77 0
98 4 145 27 30 15 66 36 80 48 l25 21 -44 38 -44 39 -32 -24 c-85 -64 -221
-50 -301 32 -42 44 -74 116 -74 169 0 43 30 121 62 159 72 87 189 109 297 55
l63 -32 37 37 36 37 -25 20 c-94 77 -245 100 -352 56z"/>
<path d="M4202 488 c5 -278 8 -303 55 -366 39 -52 95 -75 194 -80 138 -7 218
30 266 121 l28 52 3 268 4 267 -61 0 -61 0 0 -252 c0 -235 -2 -255 -20 -286
-29 -48 -75 -72 -138 -72 -59 0 -96 17 -127 58 -19 25 -20 45 -23 290 l-3 262
-60 0 -61 0 4 -262z"/>
<path d="M4950 395 l0 -355 55 0 55 0 0 355 0 355 -55 0 -55 0 0 -355z"/>
<path d="M722 395 c-94 -190 -172 -347 -172 -350 0 -3 31 -5 69 -5 l68 0 32
70 31 70 149 0 149 0 39 -68 39 -67 62 -3 c34 -2 62 -1 62 2 0 11 -345 696
-350 696 -3 0 -83 -155 -178 -345z m226 0 c23 -47 42 -87 42 -90 0 -3 -39 -5
-86 -5 -65 0 -85 3 -81 13 29 75 71 167 76 167 4 0 26 -38 49 -85z"/>
<path d="M77 443 c-4 -3 -7 -96 -7 -205 l0 -198 60 0 60 0 0 145 0 145 160 0
160 0 0 60 0 60 -213 0 c-118 0 -217 -3 -220 -7z"/>
</g>
</svg>
