<?xml version="1.0" standalone="no"?>
<!DOCTYPE svg PUBLIC "-//W3C//DTD SVG 20010904//EN"
 "http://www.w3.org/TR/2001/REC-SVG-20010904/DTD/svg10.dtd">
<svg version="1.0" xmlns="http://www.w3.org/2000/svg"
 width="205.000000pt" height="79.000000pt" viewBox="0 0 205.000000 79.000000"
 preserveAspectRatio="xMidYMid meet">
<metadata>
Created by potrace 1.16, written by Peter Selinger 2001-2019
</metadata>
<g transform="translate(0.000000,79.000000) scale(0.100000,-0.100000)"
fill="#333333" stroke="none">
<path d="M70 695 l0 -55 240 0 240 0 0 55 0 55 -240 0 -240 0 0 -55z"/>
<path d="M1142 488 c5 -278 8 -303 55 -366 39 -52 95 -75 194 -80 138 -7 218
30 266 121 l28 52 3 268 4 267 -61 0 -61 0 0 -252 c0 -235 -2 -255 -20 -286
-29 -48 -75 -72 -138 -72 -59 0 -96 17 -127 58 -19 25 -20 45 -23 290 l-3 262
-60 0 -61 0 4 -262z"/>
<path d="M1890 395 l0 -355 55 0 55 0 0 355 0 355 -55 0 -55 0 0 -355z"/>
<path d="M77 443 c-4 -3 -7 -96 -7 -205 l0 -198 60 0 60 0 0 145 0 145 160 0
160 0 0 60 0 60 -213 0 c-118 0 -217 -3 -220 -7z"/>
<path d="M620 385 l0 -55 205 0 205 0 0 55 0 55 -205 0 -205 0 0 -55z"/>
</g>
</svg>
